<svg width="65" height="65" viewBox="0 0 65 65" fill="none" xmlns="http://www.w3.org/2000/svg">
<path d="M33.0588 57.002C25.8098 56.7734 18.9163 56.5957 12.0227 56.3291C10.5374 56.2656 9.02661 56.0371 7.57935 55.6943C4.86255 55.0596 2.98364 53.4219 2.0188 50.7432C1.24439 48.585 0.965091 46.3633 0.761966 44.1035C0.31763 38.7969 0.31763 33.4902 0.53345 28.1836C0.660403 25.1875 0.736575 22.166 1.53638 19.2588C2.0188 17.5195 2.60279 15.8184 4.01197 14.5615C5.49732 13.2285 7.23657 12.4287 9.21704 12.3398C14.6506 12.0732 20.0715 11.7432 25.5051 11.6924C32.8176 11.6162 40.1428 11.7178 47.4553 11.8574C50.6165 11.9209 53.803 12.0859 56.9387 12.4922C59.8079 12.8731 61.9534 14.4727 63.096 17.2656C63.9719 19.4111 64.302 21.6582 64.4924 23.9434C64.9875 29.669 65.0002 35.3945 64.7209 41.1201C64.5813 44.0273 64.4417 46.9473 63.6165 49.7783C62.677 53.0283 60.6838 55.1738 57.3577 55.9102C56.0627 56.1895 54.717 56.291 53.3967 56.3418C46.4905 56.583 39.5969 56.7988 33.0588 57.002ZM26.0383 42.5674C31.8274 39.5713 37.553 36.6006 43.3928 33.5664C37.5657 30.5195 31.8401 27.5361 26.0383 24.502C26.0383 30.5576 26.0383 36.5117 26.0383 42.5674Z" fill="currentColor"/>
</svg>
