<svg width="65" height="65" viewBox="0 0 65 65" fill="none" xmlns="http://www.w3.org/2000/svg">
<g clip-path="url(#clip0_3302_28)">
<path d="M64.6554 47.4496C64.5767 47.28 64.5033 47.1393 64.4352 47.0265C63.3074 44.9954 61.1523 42.5024 57.9712 39.5467L57.904 39.479L57.8703 39.4458L57.8363 39.4118H57.8022C56.3584 38.0355 55.4441 37.1101 55.0613 36.6363C54.3607 35.7338 54.2038 34.8202 54.5866 33.8946C54.8571 33.1952 55.8732 31.7183 57.6325 29.4617C58.5579 28.2658 59.2908 27.3073 59.8321 26.5852C63.7356 21.3957 65.4279 18.0795 64.9087 16.6354L64.7071 16.2979C64.5716 16.0948 64.2219 15.9089 63.6585 15.7394C63.0938 15.5703 62.3721 15.5423 61.4919 15.655L51.7455 15.7223C51.5876 15.6664 51.3621 15.6716 51.0684 15.7394C50.775 15.8072 50.6283 15.8412 50.6283 15.8412L50.4586 15.926L50.324 16.0278C50.2111 16.0951 50.087 16.2135 49.9515 16.3828C49.8168 16.5515 49.704 16.7494 49.6139 16.975C48.5528 19.705 47.3464 22.2432 45.9923 24.5895C45.1575 25.9886 44.3908 27.2011 43.6906 28.2277C42.9914 29.254 42.4047 30.0102 41.9313 30.4948C41.4571 30.98 41.0292 31.3687 40.6449 31.6623C40.2612 31.956 39.9683 32.0801 39.7655 32.0347C39.5622 31.9893 39.3708 31.9443 39.1896 31.8993C38.8739 31.6961 38.62 31.4198 38.4286 31.0701C38.2363 30.7204 38.1069 30.2803 38.0392 29.7501C37.9718 29.2195 37.932 28.7632 37.9206 28.3795C37.9101 27.9962 37.9149 27.4542 37.9378 26.7548C37.9613 26.0551 37.9718 25.5817 37.9718 25.3334C37.9718 24.476 37.9886 23.5453 38.0221 22.5413C38.0562 21.5373 38.0839 20.7418 38.107 20.1558C38.13 19.5692 38.1406 18.9485 38.1406 18.2942C38.1406 17.6399 38.1008 17.1267 38.0221 16.7543C37.9443 16.3823 37.825 16.0213 37.6677 15.6712C37.5094 15.3216 37.2778 15.0511 36.9739 14.859C36.6694 14.6672 36.2908 14.515 35.8402 14.402C34.6443 14.1313 33.1215 13.985 31.271 13.9622C27.0747 13.9172 24.3784 14.1881 23.1826 14.7748C22.7088 15.0226 22.2801 15.3613 21.8967 15.7897C21.4905 16.2862 21.4339 16.5572 21.7271 16.6018C23.081 16.8046 24.0395 17.2897 24.6036 18.0568L24.8069 18.4632C24.965 18.7565 25.1229 19.2757 25.2809 20.0201C25.4387 20.7645 25.5405 21.588 25.5853 22.49C25.6979 24.1373 25.6979 25.5474 25.5853 26.7204C25.4724 27.8939 25.3657 28.8075 25.2639 29.4618C25.162 30.1161 25.0098 30.6463 24.8069 31.0523C24.6036 31.4584 24.4684 31.7066 24.4006 31.7967C24.3329 31.8868 24.2765 31.9436 24.2317 31.9659C23.9384 32.0782 23.6334 32.1355 23.3178 32.1355C23.0016 32.1355 22.6183 31.9774 22.1671 31.6614C21.7161 31.3453 21.248 30.9113 20.7628 30.3584C20.2777 29.8054 19.7305 29.0327 19.1211 28.0401C18.5122 27.0475 17.8804 25.8743 17.2261 24.5206L16.6847 23.5389C16.3463 22.9074 15.884 21.9878 15.2974 20.781C14.7104 19.5737 14.1916 18.4059 13.7405 17.2778C13.5602 16.804 13.2894 16.4433 12.9285 16.1951L12.7591 16.0932C12.6465 16.0031 12.4657 15.9075 12.2177 15.8055C11.9694 15.7037 11.7103 15.6307 11.4393 15.5858L2.16636 15.6531C1.21878 15.6531 0.575846 15.8678 0.237308 16.2965L0.101822 16.4993C0.0341383 16.6123 0 16.7927 0 17.041C0 17.2893 0.0676839 17.5939 0.20317 17.9546C1.55685 21.1361 3.02894 24.2044 4.61945 27.16C6.20997 30.1155 7.59209 32.4963 8.765 34.3002C9.93815 36.1054 11.1339 37.8091 12.3524 39.4105C13.5708 41.0125 14.3773 42.0392 14.7719 42.4902C15.167 42.942 15.4773 43.2799 15.7029 43.5054L16.5491 44.3175C17.0906 44.8591 17.8857 45.5077 18.9349 46.2634C19.9843 47.0196 21.1461 47.764 22.4208 48.4978C23.6958 49.2305 25.179 49.8284 26.8713 50.2908C28.5634 50.7537 30.2104 50.9394 31.8124 50.8498H35.7044C36.4937 50.7816 37.0917 50.5334 37.4982 50.105L37.6328 49.9354C37.7234 49.8008 37.8081 49.5915 37.8864 49.31C37.9656 49.028 38.0049 48.7173 38.0049 48.3794C37.9818 47.4094 38.0556 46.5352 38.2244 45.7569C38.3931 44.9788 38.5854 44.3922 38.8004 43.9971C39.0153 43.6024 39.2578 43.2693 39.5277 42.9993C39.7982 42.7287 39.991 42.5647 40.1041 42.5083C40.2164 42.4515 40.3062 42.413 40.3739 42.3899C40.9153 42.2095 41.5526 42.3842 42.2865 42.9149C43.0199 43.4451 43.7078 44.0998 44.3512 44.8778C44.9943 45.6566 45.7669 46.5304 46.6692 47.5003C47.5721 48.4707 48.3615 49.192 49.0381 49.6665L49.7147 50.0726C50.1666 50.3435 50.7532 50.5917 51.4753 50.8173C52.1961 51.0428 52.8277 51.0992 53.37 50.9865L62.0334 50.8513C62.8903 50.8513 63.5571 50.7095 64.03 50.4279C64.5039 50.1459 64.7855 49.8353 64.8763 49.4973C64.9668 49.159 64.9717 48.7752 64.8934 48.3461C64.8132 47.9181 64.7341 47.6188 64.6554 47.4496Z" fill="currentColor"/>
</g>
<defs>
<clipPath id="clip0_3302_28">
<rect width="65" height="65" fill="currentColor"/>
</clipPath>
</defs>
</svg>
