<svg width="65" height="65" viewBox="0 0 65 65" fill="none" xmlns="http://www.w3.org/2000/svg">
<g clip-path="url(#clip0_3302_53)">
<path d="M65 31.6629C65 49.1501 50.7152 63.3259 33.0908 63.3259C27.4957 63.3259 22.2394 61.8959 17.6663 59.3862L0 65L5.75972 48.0119C2.85422 43.2409 1.18083 37.6451 1.18083 31.6629C1.18083 14.1758 15.4671 0 33.0908 0C50.7166 0 65 14.1758 65 31.6629ZM33.0908 5.04256C18.2968 5.04256 6.26311 16.9845 6.26311 31.6629C6.26311 37.4877 8.16183 42.8819 11.3736 47.2702L8.02172 57.1567L18.3314 53.8799C22.5673 56.6612 27.6416 58.2833 33.0915 58.2833C47.8833 58.2833 59.9192 46.3428 59.9192 31.6644C59.9192 16.9859 47.8841 5.04256 33.0908 5.04256ZM49.2043 38.9552C49.0071 38.6324 48.4864 38.4374 47.7049 38.0496C46.9221 37.6617 43.0755 35.7832 42.3605 35.5254C41.6433 35.2668 41.1204 35.1368 40.5997 35.9132C40.079 36.6903 38.5797 38.4374 38.1225 38.9552C37.6661 39.4745 37.2103 39.5395 36.4274 39.1509C35.646 38.7631 33.1262 37.9427 30.1383 35.2993C27.8135 33.2424 26.2434 30.7031 25.7869 29.9253C25.3312 29.1489 25.7393 28.7293 26.13 28.3429C26.4824 27.9948 26.9129 27.4365 27.3036 26.9837C27.6958 26.5301 27.8258 26.2073 28.0851 25.6887C28.3472 25.1709 28.2165 24.7181 28.0201 24.3288C27.8251 23.9409 26.2593 20.1218 25.6078 18.5676C24.9564 17.0148 24.3057 17.2734 23.8485 17.2734C23.3928 17.2734 22.8706 17.2084 22.3492 17.2084C21.8277 17.2084 20.9798 17.4027 20.2627 18.1791C19.5462 18.9562 17.5262 20.8339 17.5262 24.6523C17.5262 28.4714 20.3277 32.1613 20.7198 32.6784C21.1106 33.1955 26.1293 41.2873 34.0809 44.395C42.0333 47.5013 42.0333 46.4649 43.4677 46.3349C44.9006 46.2056 48.0942 44.4578 48.7486 42.6465C49.3986 40.8323 49.3986 39.2788 49.2043 38.9552Z" fill="currentColor"/>
</g>
<defs>
<clipPath id="clip0_3302_53">
<rect width="65" height="65" fill="currentColor"/>
</clipPath>
</defs>
</svg>
