<svg width="187" height="49" viewBox="0 0 187 49" fill="none" xmlns="http://www.w3.org/2000/svg">
<path d="M6.27273 1.45454V48H0.636364V1.45454H6.27273ZM19.483 48H13.5739L30.6648 1.45454H36.483L53.5739 48H47.6648L33.7557 8.81818H33.392L19.483 48ZM21.6648 29.8182H45.483V34.8182H21.6648V29.8182ZM91.3693 1.45454H97.0057V32.2727C97.0057 35.4545 96.2557 38.2955 94.7557 40.7955C93.2708 43.2803 91.1724 45.2424 88.4602 46.6818C85.7481 48.1061 82.5663 48.8182 78.9148 48.8182C75.2633 48.8182 72.0814 48.1061 69.3693 46.6818C66.6572 45.2424 64.5511 43.2803 63.0511 40.7955C61.5663 38.2955 60.8239 35.4545 60.8239 32.2727V1.45454H66.4602V31.8182C66.4602 34.0909 66.9602 36.1136 67.9602 37.8864C68.9602 39.6439 70.3845 41.0303 72.233 42.0455C74.0966 43.0455 76.3239 43.5455 78.9148 43.5455C81.5057 43.5455 83.733 43.0455 85.5966 42.0455C87.4602 41.0303 88.8845 39.6439 89.8693 37.8864C90.8693 36.1136 91.3693 34.0909 91.3693 31.8182V1.45454ZM105.716 6.45454V1.45454H140.625V6.45454H125.989V48H120.352V6.45454H105.716ZM186.659 24.7273C186.659 29.6364 185.773 33.8788 184 37.4545C182.227 41.0303 179.795 43.7879 176.705 45.7273C173.614 47.6667 170.083 48.6364 166.114 48.6364C162.144 48.6364 158.614 47.6667 155.523 45.7273C152.432 43.7879 150 41.0303 148.227 37.4545C146.455 33.8788 145.568 29.6364 145.568 24.7273C145.568 19.8182 146.455 15.5758 148.227 12C150 8.42424 152.432 5.66667 155.523 3.72727C158.614 1.78788 162.144 0.81818 166.114 0.81818C170.083 0.81818 173.614 1.78788 176.705 3.72727C179.795 5.66667 182.227 8.42424 184 12C185.773 15.5758 186.659 19.8182 186.659 24.7273ZM181.205 24.7273C181.205 20.697 180.53 17.2955 179.182 14.5227C177.848 11.75 176.038 9.65151 173.75 8.22727C171.477 6.80303 168.932 6.09091 166.114 6.09091C163.295 6.09091 160.742 6.80303 158.455 8.22727C156.182 9.65151 154.371 11.75 153.023 14.5227C151.689 17.2955 151.023 20.697 151.023 24.7273C151.023 28.7576 151.689 32.1591 153.023 34.9318C154.371 37.7045 156.182 39.803 158.455 41.2273C160.742 42.6515 163.295 43.3636 166.114 43.3636C168.932 43.3636 171.477 42.6515 173.75 41.2273C176.038 39.803 177.848 37.7045 179.182 34.9318C180.53 32.1591 181.205 28.7576 181.205 24.7273Z" fill="white"/>
</svg>
